# File created by Blade
# Date/Time:  Wed Jan 21 14:43:55 2015
# Frame Rate: 120.000 fps
#------------------------------------------------------
:FULLY-SPECIFIED
:DEGREES
512
root 19.797835 35.436041 -21.093249 -173.666439 -3.087299 181.863224
Spine -7.036706 6.000183 -12.196914
Head -4.028130 -13.208044 0.323802
LeftShoulder -9.381316 -9.456758 8.054978
LeftArm -61.891284 77.696355 -107.033618
LeftForeArm 26.732678 -0.000000 104.018542
LeftHand 3.803900 0.000000 22.615762
LeftHandThumb1 -26.253704 0.000000 33.147579
RightShoulder -13.411506 -30.250759 -1.682538
RightArm 23.261624 -55.040796 36.779998
RightForeArm -41.729342 0.000000 93.570578
RightHand 6.127022 -0.000000 -24.546025
RightHandThumb1 -24.326973 -0.000000 -32.862282
LeftUpLeg 1.827930 10.689620 4.560180
LeftLeg -7.164802 -0.000000 0.000000
LeftFoot -19.059075 26.789029 -12.191389
LeftToeBase 28.058779 -0.000000 -0.000000
RightUpLeg 0.838484 -8.847647 0.283122
RightLeg -2.000879 -0.000000 0.000000
RightFoot -22.113333 -22.776108 16.926512
RightToeBase 25.021647 -0.000000 -0.000000
513
root 19.728802 35.438452 -21.077310 -173.638483 -3.220885 181.726154
Spine -7.044776 5.831504 -11.547814
Head -4.028851 -12.958307 0.668886
LeftShoulder -9.426152 -9.439959 7.980791
LeftArm -62.178616 77.870776 -107.376759
LeftForeArm 26.666670 -0.000000 103.843403
LeftHand 3.757234 -0.000000 22.570134
LeftHandThumb1 -26.253704 0.000000 33.147579
RightShoulder -13.442850 -30.339496 -1.542639
RightArm 23.163538 -54.804431 36.610015
RightForeArm -41.684916 -0.000000 93.916880
RightHand 6.081543 -0.000000 -24.532924
RightHandThumb1 -24.326973 -0.000000 -32.862282
LeftUpLeg 1.751911 10.597235 4.309356
LeftLeg -7.153583 -0.000000 0.000000
LeftFoot -19.018511 26.721379 -12.152985
LeftToeBase 27.986095 -0.000000 -0.000000
RightUpLeg 0.796889 -9.005364 0.061474
RightLeg -1.970959 -0.000000 0.000000
RightFoot -22.126328 -22.797518 16.944402
RightToeBase 24.923038 -0.000000 -0.000000
514
root 19.658771 35.439948 -21.059657 -173.588748 -3.368557 181.578001
Spine -7.074280 5.626515 -10.910029
Head -4.006609 -12.657200 1.010082
LeftShoulder -9.518141 -9.361077 7.920604
LeftArm -62.147776 78.057406 -107.466418
LeftForeArm 26.659427 -0.000000 103.660927
LeftHand 3.587671 0.000000 22.629216
LeftHandThumb1 -26.253704 0.000000 33.147579
RightShoulder -13.466194 -30.358566 -1.448584
RightArm 23.039076 -54.626134 36.485093
RightForeArm -41.556137 0.000000 94.240091
RightHand 6.076710 -0.000000 -24.518996
RightHandThumb1 -24.326973 -0.000000 -32.862282
LeftUpLeg 1.648944 10.473630 4.044725
LeftLeg -7.136290 -0.000000 0.000000
LeftFoot -18.984165 26.649275 -12.126744
LeftToeBase 27.932507 -0.000000 -0.000000
RightUpLeg 0.756862 -9.180129 -0.169338
RightLeg -1.986074 -0.000000 0.000000
RightFoot -22.113983 -22.853678 16.875325
RightToeBase 24.999078 -0.000000 -0.000000
515
root 19.590899 35.442060 -21.043837 -173.524353 -3.495106 181.441017
Spine -7.130713 5.422361 -10.266385
Head -3.959201 -12.374415 1.299815
LeftShoulder -9.625145 -9.301354 7.859785
LeftArm -62.228523 78.236381 -107.642362
LeftForeArm 26.605874 -0.000000 103.438778
LeftHand 3.564673 -0.000000 22.732994
LeftHandThumb1 -26.253704 0.000000 33.147579
RightShoulder -13.486334 -30.532043 -1.324998
RightArm 23.003081 -54.326756 36.291017
RightForeArm -41.465806 -0.000000 94.617455
RightHand 6.013355 -0.000000 -24.413289
RightHandThumb1 -24.326973 -0.000000 -32.862282
LeftUpLeg 1.557661 10.297307 3.794867
LeftLeg -7.154845 -0.000000 0.000000
LeftFoot -18.936135 26.653615 -12.095425
LeftToeBase 27.953681 -0.000000 -0.000000
RightUpLeg 0.690653 -9.319237 -0.385486
RightLeg -1.981507 -0.000000 0.000000
RightFoot -22.123535 -22.903221 16.883666
RightToeBase 25.023406 -0.000000 -0.000000
516
root 19.526601 35.444471 -21.028111 -173.464479 -3.628837 181.298622
Spine -7.175997 5.233086 -9.654035
Head -3.912362 -12.156926 1.572591
LeftShoulder -9.694989 -9.343133 7.849770
LeftArm -62.701345 78.332069 -108.218039
LeftForeArm 26.529183 -0.000000 103.214800
LeftHand 3.759565 -0.000000 22.586468
LeftHandThumb1 -26.253704 0.000000 33.147579
RightShoulder -13.523639 -30.410413 -1.246398
RightArm 22.705000 -54.241954 36.311099
RightForeArm -41.390434 0.000000 94.965882
RightHand 6.098968 -0.000000 -24.256550
RightHandThumb1 -24.326973 -0.000000 -32.862282
LeftUpLeg 1.451688 10.177797 3.540553
LeftLeg -7.140975 -0.000000 0.000000
LeftFoot -18.894394 26.612222 -12.082754
LeftToeBase 27.864697 -0.000000 -0.000000
RightUpLeg 0.642909 -9.451378 -0.600321
RightLeg -1.995892 -0.000000 0.000000
RightFoot -22.127290 -22.959887 16.892700
RightToeBase 24.995955 -0.000000 -0.000000
517
root 19.462413 35.446211 -21.007798 -173.394150 -3.741496 181.168820
Spine -7.235525 5.056061 -9.004058
Head -3.857051 -11.774872 1.828855
LeftShoulder -9.761843 -9.352638 7.784178
LeftArm -63.020029 78.424791 -108.632373
LeftForeArm 26.453776 -0.000000 103.045026
LeftHand 3.442495 -0.000000 22.476431
LeftHandThumb1 -26.253704 0.000000 33.147579
RightShoulder -13.605736 -30.444276 -1.174221
RightArm 22.734845 -54.109273 36.070365
RightForeArm -41.491856 -0.000000 95.299321
RightHand 5.816943 0.000000 -24.313105
RightHandThumb1 -24.326973 -0.000000 -32.862282
LeftUpLeg 1.331976 10.011029 3.298496
LeftLeg -7.121623 -0.000000 0.000000
LeftFoot -18.867794 26.623723 -12.061367
LeftToeBase 27.799162 -0.000000 -0.000000
RightUpLeg 0.546883 -9.605496 -0.797093
RightLeg -1.959820 -0.000000 0.000000
RightFoot -22.075811 -23.006758 16.889383
RightToeBase 24.752235 -0.000000 -0.000000
518
root 19.399921 35.447705 -20.990396 -173.368326 -3.896249 181.024704
Spine -7.236326 4.859231 -8.386123
Head -3.812307 -11.485351 2.068370
LeftShoulder -9.767787 -9.419979 7.728855
LeftArm -63.229043 78.410368 -108.903591
LeftForeArm 26.277184 0.000000 102.860421
LeftHand 3.865752 -0.000000 21.678429
LeftHandThumb1 -26.253704 0.000000 33.147579
RightShoulder -13.649866 -30.392389 -1.117181
RightArm 22.572733 -53.980386 36.017473
RightForeArm -41.357744 -0.000000 95.628713
RightHand 5.849331 -0.000000 -24.144179
RightHandThumb1 -24.326973 -0.000000 -32.862282
LeftUpLeg 1.268772 9.822674 3.053713
LeftLeg -7.133436 -0.000000 0.000000
LeftFoot -18.826004 26.640409 -12.049198
LeftToeBase 27.825577 -0.000000 -0.000000
RightUpLeg 0.527615 -9.835192 -1.023564
RightLeg -1.960062 -0.000000 0.000000
RightFoot -22.116273 -22.995510 16.780140
RightToeBase 25.140785 -0.000000 -0.000000
519
root 19.338948 35.448442 -20.977012 -173.366163 -4.042188 180.918899
Spine -7.211091 4.607810 -7.699071
Head -3.743624 -11.151387 2.288944
LeftShoulder -9.869047 -9.501555 7.651767
LeftArm -63.692609 78.423597 -109.436219
LeftForeArm 26.322604 -0.000000 102.642818
LeftHand 4.027124 -0.000000 21.432474
LeftHandThumb1 -26.253704 0.000000 33.147579
RightShoulder -13.641317 -30.448305 -1.094731
RightArm 22.517121 -53.809916 35.884849
RightForeArm -41.504539 -0.000000 95.961154
RightHand 5.610308 -0.000000 -24.231993
RightHandThumb1 -24.326973 -0.000000 -32.862282
LeftUpLeg 1.237509 9.606871 2.858749
LeftLeg -7.139650 -0.000000 0.000000
LeftFoot -18.795868 26.687440 -12.005297
LeftToeBase 27.760229 -0.000000 -0.000000
RightUpLeg 0.560384 -10.006525 -1.207310
RightLeg -2.007906 -0.000000 0.000000
RightFoot -22.096562 -23.020540 16.828333
RightToeBase 25.110025 -0.000000 -0.000000
